PathFileType	4	(X/Y/Z)	/Users/niels/Desktop/University/Third Semester/Perception and Action/Exam/Gymnastics Motion Tracking/Code for Gym Tracking/Analyzed Data/Webcam_Backflip/id4_2_pure_Sports2D/id4_2_pure_Sports2D_px_person00.trc
DataRate	CameraRate	NumFrames	NumMarkers	Units	OrigDataRate	OrigDataStartFrame	OrigNumFrames
29.8125	29.8125	8	22	m	29.8125	40	160
Frame#	Time	Hip			RHip			RKnee			RAnkle			RBigToe			RSmallToe			RHeel			LHip			LKnee			LAnkle			LBigToe			LSmallToe			LHeel			Neck			Head			Nose			RShoulder			RElbow			RWrist			LShoulder			LElbow			LWrist		
		X1	Y1	Z1	X2	Y2	Z2	X3	Y3	Z3	X4	Y4	Z4	X5	Y5	Z5	X6	Y6	Z6	X7	Y7	Z7	X8	Y8	Z8	X9	Y9	Z9	X10	Y10	Z10	X11	Y11	Z11	X12	Y12	Z12	X13	Y13	Z13	X14	Y14	Z14	X15	Y15	Z15	X16	Y16	Z16	X17	Y17	Z17	X18	Y18	Z18	X19	Y19	Z19	X20	Y20	Z20	X21	Y21	Z21	X22	Y22	Z22
40	1.341719077568134	0.9603829369521201	-0.370340237667541	0.0	0.953627647724308	-0.3695928243556799	0.0	1.0424530836192663	-0.44496265938598367	0.0	0.9614797973033572	-0.4962756178180694	0.0	0.9602436260149498	-0.5424226783299998	0.0	0.9587559120343219	-0.5351135773724356	0.0	0.9457494110992957	-0.496650369126104	0.0	0.960075787499295	-0.37040620412282926	0.0	0.9482903459247797	-0.4893537708174897	0.0	0.8738460133969379	-0.5614812716630438	0.0	0.853619874604179	-0.6055692437986995	0.0	0.8520199264665512	-0.5998692925218974	0.0	0.8584486624664928	-0.5625188967481015	0.0	0.9951118989446449	-0.2345593255444984	0.0	1.049896847323924	-0.18628900788912564	0.0	1.043241916405789	-0.22309389408819175	0.0	0.9760487997319204	-0.23575114997941393	0.0	0.9179231738022824	-0.232371179551826	0.0	0.923876174871316	-0.1829425056632885	0.0	0.9973374199854697	-0.24552209741950018	0.0	0.963239205570039	-0.2482467048876343	0.0	0.9929108250109162	-0.23948623528361654	0.0
41	1.3752620545073373	0.9637969133917119	-0.3709087934154658	0.0	0.9577143991003658	-0.3706468974494246	0.0	1.050627377774474	-0.4425138953211783	0.0	0.9828721856774361	-0.5099817616039934	0.0	0.9914058644212558	-0.5550622504980517	0.0	0.9876328660193708	-0.5495560298055083	0.0	0.9677335232687647	-0.5132335734924741	0.0	0.9615242122795896	-0.37096780197015866	0.0	0.957817744316889	-0.490389381344892	0.0	0.8778057795952923	-0.5577047513480874	0.0	0.855028911266613	-0.601429800668015	0.0	0.8539205881093697	-0.5960898552487436	0.0	0.8622006631443249	-0.5588570584021391	0.0	0.9995049644364445	-0.2344964428609421	0.0	1.0506923753306345	-0.1850933756912675	0.0	1.046379461545636	-0.22098934707531387	0.0	0.9816568014301708	-0.2369197383911694	0.0	0.9329298507839454	-0.22804736754639146	0.0	0.9483460925339101	-0.17440507847192485	0.0	1.0014486636044857	-0.24680451891839475	0.0	0.9771041745928919	-0.251901290871454	0.0	1.0196090427615907	-0.24245932888102142	0.0
42	1.4088050314465406	0.9667136439698841	-0.37472169911806225	0.0	0.960460391775622	-0.37447378855985924	0.0	1.055011831231727	-0.4457379987338459	0.0	1.004104363960543	-0.5287088502629126	0.0	1.0219073475655012	-0.571799926793362	0.0	1.0163004967124913	-0.5680076542927474	0.0	0.9898554699784898	-0.5348181518724049	0.0	0.9637718507307147	-0.37454091285718094	0.0	0.9693395876766534	-0.49346129930464566	0.0	0.8866140100417738	-0.5576747441395538	0.0	0.8631582104107511	-0.6018793400950361	0.0	0.8626727507040453	-0.5969105610212171	0.0	0.871148601507018	-0.5590587511839274	0.0	1.0042103460665774	-0.23772642372714545	0.0	1.0522389992934043	-0.18638798996434244	0.0	1.049738884488907	-0.22202433636820185	0.0	0.9872722651255093	-0.2417138170550005	0.0	0.9525523390728475	-0.2311156720719985	0.0	0.9769288460141723	-0.176830906611875	0.0	1.0059951148875446	-0.2513539680673835	0.0	0.9941811151504399	-0.26233993858916804	0.0	1.0439490563742941	-0.25031129341476666	0.0
43	1.442348008385744	0.9693798850097471	-0.38175452747507094	0.0	0.962228629280503	-0.38118412724513273	0.0	1.0560583994173263	-0.4546136604300896	0.0	1.0240586089117025	-0.5504826400439463	0.0	1.049791414912512	-0.590944946759845	0.0	1.0428624962645046	-0.5887670894454977	0.0	1.011135764175507	-0.5592850851107474	0.0	0.9672323290615511	-0.38118150653640287	0.0	0.9818358212218693	-0.4984865616924652	0.0	0.9009706573389709	-0.5629702716122893	0.0	0.8799053137285775	-0.6084792434018637	0.0	0.8799947670584541	-0.6037816848914205	0.0	0.8860705634201536	-0.5649759156125418	0.0	1.0092559235594882	-0.24413656593358454	0.0	1.054511418916849	-0.18991071366204748	0.0	1.053396730869717	-0.22598773767427677	0.0	0.9929519677281067	-0.24969982311384994	0.0	0.9760537789240623	-0.24192347229475664	0.0	1.0080079222194351	-0.18981184000697374	0.0	1.0110850557930706	-0.25902064389435275	0.0	1.0124462132553533	-0.27871704330309516	0.0	1.0644071490619413	-0.2614340552874626	0.0
44	1.4758909853249473	0.9720406366736298	-0.39192715085043756	0.0	0.963760101834375	-0.3909068923106134	0.0	1.0545246770910395	-0.46876116459476225	0.0	1.0416341282986277	-0.5742240223983586	0.0	1.073598808894389	-0.6119273306546468	0.0	1.0657623362216748	-0.6112759107665053	0.0	1.0305397873380882	-0.585462060519295	0.0	0.9716934583018941	-0.3908847814634621	0.0	0.9942084839557044	-0.5058008083616274	0.0	0.9206295012938488	-0.5744813205940352	0.0	0.905685432293884	-0.6215985085974465	0.0	0.9060556914419832	-0.6170195395860852	0.0	0.9066655812422529	-0.5777516112663131	0.0	1.0146768741662857	-0.2536679451325503	0.0	1.0573154417448318	-0.1957123441087837	0.0	1.0574487533430303	-0.23281189588538087	0.0	0.998983985477299	-0.2606505010420926	0.0	1.0017316628340498	-0.26011704215019615	0.0	1.0400056141675602	-0.21231988997272713	0.0	1.0164324033392216	-0.26954625306636587	0.0	1.0295354660993916	-0.29942858571046754	0.0	1.0808527272225879	-0.27570912176596335	0.0
45	1.5094339622641506	0.9749906730642184	-0.40523325316964254	0.0	0.9659494384655569	-0.40385746274501777	0.0	1.0515012661815657	-0.4876655813327594	0.0	1.0558781226815048	-0.5995114449429205	0.0	1.0920740565166445	-0.6347481280967068	0.0	1.0836624762990539	-0.6354578518613596	0.0	1.046986302162602	-0.6128393838697525	0.0	0.9764923736471811	-0.4037097680033895	0.0	1.0056136188851967	-0.5162446897634876	0.0	0.9444589904924618	-0.5924717960920589	0.0	0.9390146213109789	-0.6404170198272358	0.0	0.9391839501144991	-0.6358457564517949	0.0	0.9316428510895642	-0.5977293216914297	0.0	1.020406408038599	-0.2665089778937264	0.0	1.0605209029480405	-0.20458149192773356	0.0	1.0618928162796641	-0.2430240919842839	0.0	1.0056018255607955	-0.27471819849164486	0.0	1.0268951829127562	-0.28468886910431573	0.0	1.0711487838235982	-0.24292811957003574	0.0	1.0214325651013445	-0.2828035766586204	0.0	1.04356570004392	-0.32265347261941263	0.0	1.0935463826224097	-0.29422078718305567	0.0
46	1.542976939203354	0.9786049243088587	-0.4219360866724496	0.0	0.9695734478318613	-0.42044597726156957	0.0	1.0483220239180704	-0.5108793580734519	0.0	1.0661408295921808	-0.6264562802235356	0.0	1.1042673396707678	-0.6595464492711087	0.0	1.0956362901824088	-0.6613623420860876	0.0	1.0595125872488198	-0.6414969075745574	0.0	0.9810995953845775	-0.4200040931269703	0.0	1.0157122425874308	-0.5308876966823587	0.0	0.9706245967074916	-0.6166233089336888	0.0	0.976539934751202	-0.6634115779811244	0.0	0.97596450535752	-0.6588626664120586	0.0	0.9589636959921669	-0.6243924078982055	0.0	1.0262313855995566	-0.28315399223633636	0.0	1.0641327200292179	-0.21779104244432443	0.0	1.0665216704325466	-0.25762639136565757	0.0	1.0127063391778204	-0.29241260411541997	0.0	1.048656077340627	-0.3141768964434109	0.0	1.099364011159863	-0.2799753016558145	0.0	1.0255225567536137	-0.2991439606890321	0.0	1.0536118394420666	-0.3472933988444707	0.0	1.102577788071631	-0.31827323362667215	0.0
47	1.5765199161425574	0.9832597152204012	-0.44258412681646775	0.0	0.9751081861614865	-0.4412448708110058	0.0	1.0462911718836752	-0.5380472130838976	0.0	1.0722176447815426	-0.655487820006357	0.0	1.1099545039942733	-0.6864163187599505	0.0	1.1015175447185788	-0.6890842338908529	0.0	1.0675102374543444	-0.6718716649680782	0.0	0.9856115185079214	-0.44039887509434206	0.0	1.0246967056133867	-0.5505421992111595	0.0	0.9968082681609238	-0.6460428593373073	0.0	1.0137683232954064	-0.6891937611256286	0.0	1.011957531369502	-0.6847697522737386	0.0	0.9861511976344964	-0.6564338240937859	0.0	1.0318201884367602	-0.3040907277008714	0.0	1.0681003397978004	-0.23623258928398236	0.0	1.0709687643684458	-0.27731945900042476	0.0	1.0198396693373406	-0.31432554894114284	0.0	1.0651771765010265	-0.3473193844185372	0.0	1.1226433220982728	-0.32189941774586217	0.0	1.0284640268870366	-0.31926204745917364	0.0	1.0599243262344848	-0.3733957012748142	0.0	1.1080965025293228	-0.3484981845111061	0.0
